<svg width="89" height="97" viewBox="0 0 89 97" fill="none" xmlns="http://www.w3.org/2000/svg">
<path fill-rule="evenodd" clip-rule="evenodd" d="M35.9537 20.2849C40.365 19.1144 43.6158 15.0941 43.6158 10.3146C43.6158 4.61799 38.9978 0 33.3012 0C27.6046 0 22.9867 4.61799 22.9867 10.3146C22.9867 11.7858 23.2947 13.1851 23.8498 14.4515L16.308 20.7798C14.6187 19.5718 12.5497 18.8609 10.3146 18.8609C4.61799 18.8609 0 23.4789 0 29.1755C0 34.872 4.61799 39.49 10.3146 39.49C12.5384 39.49 14.5978 38.7863 16.2823 37.5893L23.8371 43.9285C23.29 45.1872 22.9867 46.5764 22.9867 48.0364C22.9867 52.816 26.2377 56.8364 30.6491 58.0068V76.3774C26.2377 77.5478 22.9867 81.5682 22.9867 86.3478C22.9867 92.0444 27.6046 96.6624 33.3012 96.6624C38.9978 96.6624 43.6158 92.0444 43.6158 86.3478C43.6158 81.5683 40.365 77.548 35.9537 76.3775V58.0067C39.5186 57.0607 42.3256 54.2537 43.2716 50.6888H45.7284C46.6744 54.2537 49.4814 57.0608 53.0463 58.0067V76.3775C48.6351 77.548 45.3842 81.5683 45.3842 86.3478C45.3842 92.0444 50.0022 96.6624 55.6987 96.6624C61.3953 96.6624 66.0133 92.0444 66.0133 86.3478C66.0133 84.8099 65.6768 83.3506 65.0732 82.0396L72.5418 75.7727C74.2579 77.0472 76.3836 77.8012 78.6854 77.8012C84.382 77.8012 89 73.1832 89 67.4867C89 62.7071 85.7491 58.6868 81.3379 57.5163V39.1458C85.7491 37.9753 89 33.955 89 29.1755C89 23.4789 84.382 18.8609 78.6854 18.8609C76.3724 18.8609 74.2371 19.6223 72.5167 20.9081L65.0601 14.6513C65.6718 13.3329 66.0133 11.8636 66.0133 10.3146C66.0133 4.61799 61.3953 0 55.6987 0C50.0022 0 45.3842 4.61799 45.3842 10.3146C45.3842 15.0941 48.6351 19.1144 53.0463 20.2849V38.066C49.4813 39.012 46.6742 41.8192 45.7283 45.3842H43.2716C42.3258 41.8192 39.5187 39.012 35.9537 38.066V20.2849ZM30.6491 20.285C29.3709 19.9459 28.1901 19.3675 27.1576 18.6007L19.6891 24.8674C20.2926 26.1784 20.6292 27.6376 20.6292 29.1755C20.6292 30.7245 20.2877 32.1938 19.6759 33.5122L27.1325 39.769C28.1709 38.9929 29.3605 38.4078 30.6491 38.0659V20.285ZM66.0133 48.0364C66.0133 43.2567 62.7623 39.2364 58.3509 38.066V20.285C59.5571 19.965 60.6766 19.4319 61.6665 18.7285L69.2213 25.0677C68.6742 26.3264 68.3709 27.7155 68.3709 29.1755C68.3709 33.9551 71.6219 37.9755 76.0333 39.1459V57.5163C74.8991 57.8172 73.8417 58.3064 72.8965 58.9486L65.0601 52.3731C65.6719 51.0547 66.0133 49.5854 66.0133 48.0364ZM58.3509 76.3774C59.5675 76.7002 60.6958 77.2397 61.692 77.9521L69.234 71.6236C68.6789 70.3572 68.3709 68.9579 68.3709 67.4867C68.3709 65.8605 68.7472 64.3222 69.4175 62.9541L61.6665 56.4502C60.6766 57.1536 59.5571 57.6867 58.3509 58.0068V76.3774ZM33.3012 15.9139C36.3936 15.9139 38.9005 13.407 38.9005 10.3146C38.9005 7.22214 36.3936 4.71523 33.3012 4.71523C30.2087 4.71523 27.7018 7.22214 27.7018 10.3146C27.7018 13.407 30.2087 15.9139 33.3012 15.9139ZM15.9138 29.1756C15.9138 32.268 13.4069 34.7749 10.3144 34.7749C7.22201 34.7749 4.7151 32.268 4.7151 29.1756C4.7151 26.0832 7.22201 23.5763 10.3144 23.5763C13.4069 23.5763 15.9138 26.0832 15.9138 29.1756ZM78.6855 34.7749C81.7779 34.7749 84.2848 32.268 84.2848 29.1756C84.2848 26.0832 81.7779 23.5763 78.6855 23.5763C75.5931 23.5763 73.0862 26.0832 73.0862 29.1756C73.0862 32.268 75.5931 34.7749 78.6855 34.7749ZM33.3012 91.9471C36.3936 91.9471 38.9005 89.4402 38.9005 86.3478C38.9005 83.2554 36.3936 80.7485 33.3012 80.7485C30.2087 80.7485 27.7018 83.2554 27.7018 86.3478C27.7018 89.4402 30.2087 91.9471 33.3012 91.9471ZM61.2981 10.3146C61.2981 13.407 58.7912 15.9139 55.6988 15.9139C52.6063 15.9139 50.0994 13.407 50.0994 10.3146C50.0994 7.22214 52.6063 4.71523 55.6988 4.71523C58.7912 4.71523 61.2981 7.22214 61.2981 10.3146ZM55.6988 53.6357C58.7912 53.6357 61.2981 51.1287 61.2981 48.0363C61.2981 44.9439 58.7912 42.437 55.6988 42.437C52.6063 42.437 50.0994 44.9439 50.0994 48.0363C50.0994 51.1287 52.6063 53.6357 55.6988 53.6357ZM38.9005 48.0363C38.9005 51.1287 36.3936 53.6357 33.3012 53.6357C30.2087 53.6357 27.7018 51.1287 27.7018 48.0363C27.7018 44.9439 30.2087 42.437 33.3012 42.437C36.3936 42.437 38.9005 44.9439 38.9005 48.0363ZM10.3146 77.8012C16.0112 77.8012 20.6292 73.1832 20.6292 67.4867C20.6292 61.7901 16.0112 57.1721 10.3146 57.1721C4.61799 57.1721 0 61.7901 0 67.4867C0 73.1832 4.61799 77.8012 10.3146 77.8012ZM10.3144 73.0859C13.4069 73.0859 15.9138 70.579 15.9138 67.4866C15.9138 64.3941 13.4069 61.8872 10.3144 61.8872C7.22201 61.8872 4.7151 64.3941 4.7151 67.4866C4.7151 70.579 7.22201 73.0859 10.3144 73.0859ZM84.2848 67.4866C84.2848 70.579 81.7779 73.0859 78.6855 73.0859C75.5931 73.0859 73.0862 70.579 73.0862 67.4866C73.0862 64.3941 75.5931 61.8872 78.6855 61.8872C81.7779 61.8872 84.2848 64.3941 84.2848 67.4866ZM55.6988 91.9471C58.7912 91.9471 61.2981 89.4402 61.2981 86.3478C61.2981 83.2554 58.7912 80.7485 55.6988 80.7485C52.6063 80.7485 50.0994 83.2554 50.0994 86.3478C50.0994 89.4402 52.6063 91.9471 55.6988 91.9471Z" fill="url(#paint0_linear_303_159)"/>
<defs>
<linearGradient id="paint0_linear_303_159" x1="40.1849" y1="8.36062" x2="56.9061" y2="77.4031" gradientUnits="userSpaceOnUse">
<stop stop-color="#6CEAFF"/>
<stop offset="1" stop-color="#0081AA"/>
</linearGradient>
</defs>
</svg>
